# xmcd
#
# Track frame offsets: 
#        150
#        9317
#        20310
#        29732
#        38037
#        48842
#        64190
#        73792
#        83327
#        94910
#        106155
#        115217
#        124942
#        136115
#        147752
#        158812
#        167792
#        182910
#        192102
#        202602
#
# Disc length: 2851 seconds
#
# Revision: 2
# Processed by: cddbd v1.5.2PL0 Copyright (c) Steve Scherf et al.
# Submitted via: ExactAudioCopyFreeDBPlugin 1.0
#
DISCID=020b2114
DTITLE=Marty Robbins - Ruby Ann (Rockin' Rollin Robbins, Vol. 3)
DYEAR=1991
DGENRE=Country
TTITLE0=Ruby Ann (Chart Vers.)
TTITLE1=Sometimes I'm Tempted
TTITLE2=No Signs Of Loneliness Here
TTITLE3=Teenager's Dad
TTITLE4=Hello Baby (Goodbye Baby) (2)
TTITLE5=Baby's Gone
TTITLE6=Ruby Ann
TTITLE7=A Whole Lot Easier Easier
TTITLE8=Hello Baby (Goodbye Baby) (3)
TTITLE9=While You're Dancing
TTITLE10=Cap And Gown (Fast Vers.)
TTITLE11=Cap And Gown (Slow Vers.)
TTITLE12=Last Night About This Time
TTITLE13=She Was Young And She Was Pretty
TTITLE14=Love Can't Wait
TTITLE15=Cap And Gown (New York Rec.)
TTITLE16=Sweet Cora
TTITLE17=Ain't Life A Cryin' Shame
TTITLE18=Silence And Tears
TTITLE19=You've Been So Busy Baby
EXTD=
EXTT0=
EXTT1=
EXTT2=
EXTT3=
EXTT4=
EXTT5=
EXTT6=
EXTT7=
EXTT8=
EXTT9=
EXTT10=
EXTT11=
EXTT12=
EXTT13=
EXTT14=
EXTT15=
EXTT16=
EXTT17=
EXTT18=
EXTT19=
PLAYORDER=
